<svg xmlns="http://www.w3.org/2000/svg" xmlns:xlink="http://www.w3.org/1999/xlink" preserveAspectRatio="xMidYMid" width="24" height="24" viewBox="0 0 24 24">
  <defs>
    <style>
      .cls-1 {
        fill: #000;
        fill-rule: evenodd;
      }
    </style>
  </defs>
  <path d="M23.000,24.000 L18.062,24.000 C17.510,24.000 17.063,23.553 17.063,23.000 L17.063,16.979 C17.063,15.164 16.875,14.980 16.075,14.980 C15.162,14.980 15.000,15.129 15.000,17.000 L15.000,23.000 C15.000,23.553 14.553,24.000 14.000,24.000 L9.000,24.000 C8.447,24.000 8.000,23.553 8.000,23.000 L8.000,9.000 C8.000,8.447 8.447,8.000 9.000,8.000 L14.000,8.000 C14.434,8.000 14.803,8.276 14.941,8.661 C15.644,8.257 16.562,7.969 17.750,7.969 C23.258,7.969 24.000,11.492 24.000,14.940 L24.000,23.000 C24.000,23.553 23.553,24.000 23.000,24.000 ZM22.000,14.940 C22.000,11.177 20.968,9.969 17.750,9.969 C16.069,9.969 15.259,10.794 14.874,11.485 C14.653,11.884 14.195,12.081 13.749,11.968 C13.308,11.854 13.000,11.456 13.000,11.000 L13.000,10.000 L10.000,10.000 L10.000,22.000 L13.000,22.000 L13.000,17.000 C13.000,15.595 13.000,12.979 16.075,12.979 C19.063,12.979 19.063,15.681 19.063,16.979 L19.063,22.000 L22.000,22.000 L22.000,14.940 ZM6.000,24.000 L1.000,24.000 C0.447,24.000 -0.000,23.553 -0.000,23.000 L-0.000,9.000 C-0.000,8.447 0.447,8.000 1.000,8.000 L6.000,8.000 C6.553,8.000 7.000,8.447 7.000,9.000 L7.000,23.000 C7.000,23.553 6.553,24.000 6.000,24.000 ZM5.000,10.000 L2.000,10.000 L2.000,22.000 L5.000,22.000 L5.000,10.000 ZM3.496,6.992 C1.568,6.992 -0.000,5.424 -0.000,3.496 C-0.000,1.569 1.568,-0.000 3.496,-0.000 C5.424,-0.000 6.992,1.569 6.992,3.496 C6.992,5.424 5.424,6.992 3.496,6.992 ZM3.496,2.000 C2.671,2.000 2.000,2.671 2.000,3.496 C2.000,4.321 2.671,4.992 3.496,4.992 C4.321,4.992 4.992,4.321 4.992,3.496 C4.992,2.671 4.321,2.000 3.496,2.000 Z" class="cls-1"/>
</svg>
