<svg xmlns="http://www.w3.org/2000/svg" xmlns:xlink="http://www.w3.org/1999/xlink" preserveAspectRatio="xMidYMid" width="23.81" height="20" viewBox="0 0 23.81 20">
  <defs>
    <style>
      .cls-1 {
        fill: #000;
        fill-rule: evenodd;
      }
    </style>
  </defs>
  <path d="M15.711,2.000 C16.881,2.000 17.937,2.489 18.681,3.275 C19.607,3.092 20.479,2.759 21.263,2.297 C20.960,3.237 20.315,4.027 19.474,4.527 C20.296,4.428 21.083,4.212 21.812,3.891 C21.265,4.698 20.577,5.409 19.782,5.979 C19.789,6.151 19.793,6.326 19.793,6.500 C19.793,11.830 16.426,17.998 8.941,17.998 C5.957,17.998 3.778,17.305 1.979,16.161 C2.297,16.201 2.621,16.218 2.948,16.218 C4.855,16.218 6.610,15.574 8.003,14.491 C6.221,14.460 4.718,13.493 4.202,11.891 C4.450,11.939 4.706,11.964 4.968,11.964 C5.337,11.964 5.699,11.915 6.039,11.823 C4.178,11.453 2.942,9.837 2.942,7.882 C2.942,7.864 2.942,7.847 2.942,7.830 C3.491,8.132 4.118,8.314 4.786,8.335 C3.693,7.611 2.975,6.378 2.975,4.979 C2.975,4.240 3.177,3.546 3.526,2.952 C5.533,5.391 8.365,6.783 11.747,6.952 C11.677,6.658 11.641,6.348 11.641,6.034 C11.641,3.806 13.463,2.000 15.711,2.000 M21.812,3.891 L21.817,3.891 M15.711,-0.001 C12.854,-0.001 10.453,1.979 9.817,4.632 C7.980,4.127 6.360,3.258 5.058,1.677 C4.679,1.215 4.116,0.952 3.526,0.952 C3.474,0.952 3.422,0.954 3.370,0.958 C2.725,1.009 2.144,1.372 1.815,1.933 C1.273,2.854 0.986,3.907 0.986,4.979 C0.986,5.594 1.080,6.196 1.257,6.767 C1.062,7.080 0.953,7.447 0.953,7.830 L0.953,7.882 C0.953,9.321 1.421,10.640 2.225,11.673 C2.195,11.950 2.222,12.234 2.310,12.507 C2.536,13.211 2.884,13.650 3.326,14.206 C3.201,14.214 3.075,14.218 2.948,14.218 C2.691,14.218 2.446,14.203 2.220,14.175 C2.139,14.165 2.058,14.161 1.978,14.161 C1.146,14.160 0.391,14.685 0.106,15.489 C-0.207,16.371 0.130,17.353 0.916,17.853 C3.187,19.297 5.812,19.999 8.941,19.999 C14.035,19.999 17.070,17.556 18.720,15.507 C20.580,13.196 21.682,10.094 21.776,6.937 C22.390,6.391 22.937,5.771 23.410,5.085 C23.657,4.752 23.804,4.339 23.804,3.891 C23.804,3.348 23.590,2.856 23.242,2.496 C23.308,1.832 23.040,1.168 22.509,0.738 C22.147,0.445 21.706,0.296 21.262,0.296 C20.917,0.296 20.570,0.387 20.258,0.570 C19.912,0.774 19.546,0.943 19.165,1.076 C18.158,0.383 16.950,-0.001 15.711,-0.001 L15.711,-0.001 Z" class="cls-1"/>
</svg>
