<svg xmlns="http://www.w3.org/2000/svg" xmlns:xlink="http://www.w3.org/1999/xlink" viewBox="0 0 94 61"><defs><style>.a{fill:#fff;}.b{fill:url(#a);}.c{fill:url(#b);}.d{fill:url(#c);}</style><linearGradient id="a" x1="61.24" y1="4.54" x2="45.04" y2="4.8" gradientUnits="userSpaceOnUse"><stop offset="0" stop-color="#b0d396"/><stop offset="0.07" stop-color="#a7cf95"/><stop offset="0.71" stop-color="#5aaa8f"/><stop offset="1" stop-color="#3b9c8c"/></linearGradient><linearGradient id="b" x1="34.49" y1="0.62" x2="42.59" y2="14.99" xlink:href="#a"/><linearGradient id="c" x1="45.04" y1="25.31" x2="53.4" y2="12.25" xlink:href="#a"/></defs><title>vast_logo</title><path class="a" d="M16.28,41.72a1.2,1.2,0,0,0-1,.72L9,56.91,2.83,42.49a1.13,1.13,0,0,0-1.05-.77,1,1,0,0,0-1,1,.93.93,0,0,0,.1.46l6.93,16A1.22,1.22,0,0,0,9,60h.1a1.24,1.24,0,0,0,1.18-.85l7-16.07a1.07,1.07,0,0,0,.08-.41A1,1,0,0,0,16.28,41.72Z"/><path class="a" d="M35.79,42.57a1.21,1.21,0,0,0-1.18-.85h-.1a1.24,1.24,0,0,0-1.18.85l-7,16.07a1.06,1.06,0,0,0-.08.41,1,1,0,0,0,1,1,1.19,1.19,0,0,0,1-.72l6.24-14.47,6.21,14.42A1.14,1.14,0,0,0,41.8,60a1,1,0,0,0,1-1,.94.94,0,0,0-.1-.46Z"/><path class="a" d="M92.3,41.59H79.82a1.07,1.07,0,0,0-.95,1.07,1,1,0,0,0,.95,1H85V58.93a1,1,0,0,0,2.05,0V43.65H92.3a1,1,0,0,0,1-1A1.07,1.07,0,0,0,92.3,41.59Z"/><path class="a" d="M60.51,43.65h5.85a1,1,0,0,0,1-1,1.06,1.06,0,0,0-1-1H60.46c-3.65,0-5.9,2.08-5.9,4.9v.05c0,3,1.9,4.29,6,5.19,3.77.8,4.67,1.75,4.67,3.42v.05C65.26,57,63.7,58,60.94,58H55.5a1,1,0,0,0-.95,1,1.09,1.09,0,0,0,.95,1.09h5.67c3.57,0,6.14-2,6.14-5.08v-.05c0-2.75-1.85-4.21-5.85-5.08s-4.88-1.8-4.88-3.49v-.05C56.58,44.7,58,43.65,60.51,43.65Z"/><path class="b" d="M62.78,1.56A1.3,1.3,0,0,0,61.63.92H45.09a1,1,0,0,0,0,2.09H60.24L58,6.88a1,1,0,0,0,.9,1.57,1,1,0,0,0,.9-.51l3-5.08A1.28,1.28,0,0,0,62.78,1.56Z"/><path class="c" d="M33.76,3h4.79a1,1,0,1,0,0-2.09H32.37a1.3,1.3,0,0,0-1.15.64,1.29,1.29,0,0,0,0,1.31l8.3,14a1,1,0,0,0,1.8-1.06Z"/><path class="d" d="M56,12.21a1,1,0,0,0-.52-.14,1.05,1.05,0,0,0-.91.51L47,25.47l-2.34-3.94a1.05,1.05,0,0,0-.91-.51,1,1,0,0,0-.52.14,1,1,0,0,0-.37,1.43l3,5.09a1.27,1.27,0,0,0,2.24,0l8.28-14A1,1,0,0,0,56,12.21Z"/></svg>